<?xml version="1.0" encoding="UTF-8"?>
<!DOCTYPE svg PUBLIC "-//W3C//DTD SVG 1.1//EN" "http://www.w3.org/Graphics/SVG/1.1/DTD/svg11.dtd">
<svg xmlns="http://www.w3.org/2000/svg" style="background: transparent; background-color: transparent; color-scheme: light dark;" xmlns:xlink="http://www.w3.org/1999/xlink" version="1.1" width="160px" height="201px" viewBox="-0.5 -0.5 160 201"><defs/><g><g data-cell-id="0"><g data-cell-id="1"><g data-cell-id="CjM_jJij2-s10qHh2ohh-34"><g/><g data-cell-id="CjM_jJij2-s10qHh2ohh-26"><g><rect x="0" y="0" width="160" height="20" fill="#333333" stroke="none" transform="rotate(180,80,10)" pointer-events="all" style="fill: light-dark(rgb(51, 51, 51), rgb(193, 193, 193));"/></g></g><g data-cell-id="CjM_jJij2-s10qHh2ohh-28"><g><rect x="140" y="0" width="20" height="200" fill="#333333" stroke="none" transform="rotate(180,150,100)" pointer-events="all" style="fill: light-dark(rgb(51, 51, 51), rgb(193, 193, 193));"/></g></g><g data-cell-id="CjM_jJij2-s10qHh2ohh-29"><g><rect x="70" y="0" width="20" height="200" fill="#333333" stroke="none" transform="rotate(180,80,100)" pointer-events="all" style="fill: light-dark(rgb(51, 51, 51), rgb(193, 193, 193));"/></g></g><g data-cell-id="CjM_jJij2-s10qHh2ohh-31"><g><path d="M 90 155 C 90 171.08 81.42 185.93 67.5 193.97 C 53.58 202.01 36.42 202.01 22.5 193.97 C 8.58 185.93 0 171.08 0 155 L 19.35 155 C 19.35 164.16 24.24 172.63 32.17 177.21 C 40.11 181.8 49.89 181.8 57.82 177.21 C 65.76 172.63 70.65 164.16 70.65 155 Z" fill="#333333" stroke="none" pointer-events="all" style="fill: light-dark(rgb(51, 51, 51), rgb(193, 193, 193));"/></g></g><g data-cell-id="CjM_jJij2-s10qHh2ohh-32"><g><rect x="70" y="90" width="90" height="20" fill="#333333" stroke="none" transform="rotate(180,115,100)" pointer-events="all" style="fill: light-dark(rgb(51, 51, 51), rgb(193, 193, 193));"/></g></g></g></g></g></g></svg>